<?xml version="1.0" encoding="UTF-8" standalone="no"?><!DOCTYPE svg PUBLIC "-//W3C//DTD SVG 1.1//EN" "http://www.w3.org/Graphics/SVG/1.1/DTD/svg11.dtd"><svg width="100%" height="100%" viewBox="0 0 240 96" version="1.1" xmlns="http://www.w3.org/2000/svg" xmlns:xlink="http://www.w3.org/1999/xlink" xml:space="preserve" xmlns:serif="http://www.serif.com/" style="fill-rule:evenodd;clip-rule:evenodd;stroke-linejoin:round;stroke-miterlimit:1.41421;"><g id="_4" serif:id="4"><rect id="_-Rectangle-" serif:id="(Rectangle)" x="0" y="96" width="240" height="96" style="fill:#073b4c;"/></g><g id="_3" serif:id="3"><rect id="_-Rectangle-1" serif:id="(Rectangle)" x="0" y="0" width="240" height="96" style="fill:#fff;"/><g id="Logo"><path id="SvgjsG1305" d="M52.385,14.4c0.785,0 1.446,0.663 1.446,1.451l0,27.781c0,0.787 -0.661,1.451 -1.446,1.451l-3.14,0c-0.827,0 -1.446,-0.664 -1.446,-1.451l0,-18.742l-7.644,9.868c-0.289,0.332 -0.702,0.539 -1.157,0.539c-0.454,0 -0.909,-0.207 -1.157,-0.58l-13.552,-17.995c-0.33,-0.415 -0.372,-1.037 -0.124,-1.493c0.248,-0.497 0.744,-0.829 1.281,-0.829l3.636,0c0.454,0 0.868,0.207 1.157,0.58l8.759,11.61l8.553,-11.61c0.289,-0.373 0.702,-0.58 1.198,-0.58l3.636,0Zm-23.799,20.11c0.785,0 1.446,0.622 1.446,1.451l0,7.671c0,0.787 -0.661,1.451 -1.446,1.451l-3.14,0c-0.785,0 -1.446,-0.664 -1.446,-1.451l0,-7.671c0,-0.829 0.661,-1.451 1.446,-1.451l3.14,0Zm36.483,-20.11c0.785,0 1.446,0.663 1.446,1.451l0,27.532c0,0.788 -0.661,1.451 -1.446,1.451l-3.099,0c-0.785,0 -1.446,-0.663 -1.446,-1.451l0,-27.532c0,-0.788 0.661,-1.451 1.446,-1.451l3.099,0Zm17.477,6.676c-1.074,0.456 -2.024,1.119 -2.768,1.99c-1.57,1.741 -2.314,4.022 -2.314,6.883c0,2.861 0.744,5.141 2.314,6.924c1.611,1.824 3.925,2.695 7.106,2.695c1.694,0 3.099,-0.414 4.339,-1.244c1.281,-0.87 2.19,-1.948 2.809,-3.4c0.207,-0.539 0.744,-0.87 1.322,-0.87l3.264,0c0.455,0 0.909,0.207 1.157,0.58c0.29,0.415 0.372,0.871 0.207,1.327c-1.033,2.902 -2.727,5.183 -5.041,6.841c-2.479,1.783 -5.412,2.695 -8.759,2.695c-4.421,0 -8.057,-1.534 -10.825,-4.602c-2.562,-2.902 -3.884,-6.593 -3.884,-10.946c0,-4.354 1.322,-8.044 3.884,-10.947c2.768,-3.068 6.404,-4.602 10.825,-4.602c3.347,0 6.28,0.912 8.759,2.695c2.314,1.659 4.008,3.981 5.041,6.842c0.165,0.456 0.083,0.953 -0.207,1.326c-0.248,0.374 -0.702,0.581 -1.157,0.581l-3.264,0c-0.578,0 -1.115,-0.332 -1.322,-0.871c-0.619,-1.451 -1.528,-2.529 -2.809,-3.4c-1.24,-0.829 -2.645,-1.244 -4.339,-1.244c-1.776,0 -3.222,0.249 -4.338,0.747Zm45.821,-6.676c0.785,0 1.404,0.663 1.404,1.451l0,27.532c0,0.788 -0.619,1.451 -1.404,1.451l-3.14,0c-0.785,0 -1.405,-0.663 -1.405,-1.451l0,-10.822l-13.098,0l0,10.822c0,0.788 -0.661,1.451 -1.446,1.451l-3.099,0c-0.785,0 -1.446,-0.663 -1.446,-1.451l0,-27.532c0,-0.788 0.661,-1.451 1.446,-1.451l3.099,0c0.785,0 1.446,0.663 1.446,1.451l0,10.781l13.098,0l0,-10.781c0,-0.788 0.62,-1.451 1.405,-1.451l3.14,0Zm23.302,0.871l11.569,27.407c0.124,0.207 0.207,0.456 0.207,0.705c0,0.788 -0.62,1.451 -1.446,1.451l-3.43,0c-0.578,0 -1.115,-0.332 -1.322,-0.871l-3.016,-7.131l-11.693,0l-2.974,7.131c-0.207,0.539 -0.744,0.871 -1.323,0.871l-3.429,0c-0.496,0 -0.95,-0.249 -1.198,-0.663c-0.289,-0.374 -0.331,-0.913 -0.124,-1.327l11.651,-27.573c0.207,-0.539 0.744,-0.871 1.323,-0.871l3.883,0c0.579,0 1.116,0.332 1.322,0.871Zm-3.264,7.546l-3.429,8.251l6.859,0l-3.43,-8.251Zm40.202,-8.417c0.826,0 1.446,0.663 1.446,1.451l0,2.986c0,0.787 -0.62,1.451 -1.446,1.451l-15.618,0l0,6.344l13.8,0c0.826,0 1.446,0.663 1.446,1.451l0,3.027c0,0.787 -0.62,1.451 -1.446,1.451l-13.8,0l0,6.385l15.618,0c0.826,0 1.446,0.664 1.446,1.451l0,2.986c0,0.788 -0.62,1.451 -1.446,1.451l-20.163,0c-0.785,0 -1.446,-0.663 -1.446,-1.451l0,-27.532c0,-0.788 0.661,-1.451 1.446,-1.451l20.163,0Zm25.947,24.546c0.826,0 1.446,0.664 1.446,1.451l0,2.986c0,0.788 -0.62,1.451 -1.446,1.451l-18.056,0c-0.785,0 -1.446,-0.663 -1.446,-1.451l0,-27.532c0,-0.788 0.661,-1.451 1.446,-1.451l3.099,0c0.785,0 1.446,0.663 1.446,1.451l0,23.095l13.511,0Z" style="fill:#073b4c;fill-rule:nonzero;"/><path id="SvgjsG1306" d="M40.813,71.099l5.356,8.223c0.248,0.391 0.284,0.854 0.035,1.281c-0.212,0.392 -0.638,0.641 -1.064,0.641l-3.228,0c-0.425,0 -0.815,-0.214 -1.028,-0.569l-5.392,-8.579l-6.313,0l0,7.902c0,0.677 -0.568,1.246 -1.242,1.246l-2.696,0c-0.673,0 -1.241,-0.569 -1.241,-1.246l0,-11.711c0,-0.676 0.568,-1.246 1.241,-1.246l10.925,0c2.058,0 3.441,-0.569 4.15,-1.779c0.249,-0.392 0.355,-0.962 0.355,-1.638c0,-1.174 -0.355,-1.993 -1.1,-2.634c-0.78,-0.712 -1.88,-1.032 -3.263,-1.032l-11.067,0c-0.673,0 -1.241,-0.57 -1.241,-1.246l0,-2.563c0,-0.676 0.568,-1.246 1.241,-1.246l11.386,0c2.732,0 4.966,0.783 6.633,2.35c1.738,1.566 2.59,3.701 2.59,6.371c0,3.453 -1.526,5.945 -4.434,7.226c-0.178,0.071 -0.39,0.178 -0.603,0.249Zm22.701,-15.448l9.931,23.528c0.107,0.178 0.178,0.392 0.178,0.606c0,0.676 -0.532,1.245 -1.242,1.245l-2.944,0c-0.496,0 -0.957,-0.284 -1.135,-0.747l-2.589,-6.123l-10.038,0l-2.554,6.123c-0.177,0.463 -0.638,0.747 -1.135,0.747l-2.944,0c-0.426,0 -0.816,-0.213 -1.029,-0.569c-0.248,-0.32 -0.283,-0.783 -0.106,-1.139l10.002,-23.671c0.178,-0.463 0.639,-0.748 1.136,-0.748l3.334,0c0.496,0 0.957,0.285 1.135,0.748Zm-2.802,6.478l-2.944,7.084l5.888,0l-2.944,-7.084Zm36.605,-7.226c0.39,0 0.78,0.214 1.028,0.534c0.213,0.356 0.284,0.783 0.107,1.175l-9.542,23.635c-0.177,0.463 -0.638,0.783 -1.135,0.783l-3.05,0c-0.532,0 -0.958,-0.32 -1.171,-0.783l-9.541,-23.635c-0.142,-0.392 -0.106,-0.819 0.142,-1.175c0.213,-0.32 0.603,-0.534 1.028,-0.534l2.909,0c0.497,0 0.958,0.321 1.135,0.783l7.023,17.691l6.988,-17.691c0.213,-0.462 0.638,-0.783 1.17,-0.783l2.909,0Zm22.772,0c0.709,0 1.241,0.57 1.241,1.246l0,2.563c0,0.676 -0.532,1.246 -1.241,1.246l-13.408,0l0,5.446l11.847,0c0.709,0 1.241,0.569 1.241,1.246l0,2.598c0,0.677 -0.532,1.246 -1.241,1.246l-11.847,0l0,5.482l13.408,0c0.709,0 1.241,0.569 1.241,1.246l0,2.563c0,0.676 -0.532,1.245 -1.241,1.245l-17.31,0c-0.674,0 -1.241,-0.569 -1.241,-1.245l0,-23.636c0,-0.676 0.567,-1.246 1.241,-1.246l17.31,0Zm21.211,0.89c1.454,0.605 2.767,1.495 3.866,2.634c2.448,2.492 3.689,5.696 3.689,9.54c0,3.844 -1.241,7.048 -3.689,9.539c-1.099,1.14 -2.412,2.029 -3.866,2.635c-1.454,0.605 -2.944,0.889 -4.505,0.889l-9.932,0c-0.673,0 -1.241,-0.569 -1.241,-1.245l0,-23.636c0,-0.676 0.568,-1.246 1.241,-1.246l9.932,0c1.561,0 3.086,0.321 4.505,0.89Zm-10.535,4.129l0,16.089l5.924,0c2.092,0 3.76,-0.747 5.072,-2.313c1.312,-1.531 1.951,-3.417 1.951,-5.731c0,-2.314 -0.639,-4.2 -1.951,-5.731c-1.312,-1.566 -2.98,-2.314 -5.072,-2.314l-5.924,0Zm34.087,-5.019c3.831,0 7.059,1.317 9.541,3.916c2.412,2.527 3.654,5.695 3.654,9.433c0,3.737 -1.242,6.905 -3.654,9.432c-2.482,2.599 -5.71,3.916 -9.541,3.916c-3.831,0 -7.059,-1.317 -9.541,-3.916c-2.412,-2.527 -3.654,-5.695 -3.654,-9.432c0,-3.738 1.242,-6.906 3.654,-9.433c2.482,-2.599 5.71,-3.916 9.541,-3.916Zm0,21.607c2.483,0 4.398,-0.783 5.888,-2.35c1.454,-1.53 2.164,-3.488 2.164,-5.908c0,-2.421 -0.71,-4.343 -2.164,-5.909c-1.49,-1.566 -3.405,-2.35 -5.888,-2.35c-2.483,0 -4.398,0.784 -5.888,2.35c-1.454,1.566 -2.164,3.488 -2.164,5.909c0,2.42 0.71,4.378 2.164,5.908c1.49,1.567 3.405,2.35 5.888,2.35Zm39.017,-21.607c0.674,0 1.242,0.57 1.242,1.246l0,23.636c0,0.676 -0.568,1.245 -1.242,1.245l-3.121,0c-0.39,0 -0.745,-0.178 -0.993,-0.498l-12.308,-16.908l0,16.161c0,0.676 -0.568,1.245 -1.242,1.245l-2.66,0c-0.674,0 -1.242,-0.569 -1.242,-1.245l0,-23.636c0,-0.676 0.568,-1.246 1.242,-1.246l3.086,0c0.39,0 0.78,0.178 0.993,0.499l12.343,16.836l0,-16.089c0,-0.676 0.533,-1.246 1.206,-1.246l2.696,0Zm10.89,0c0.673,0 1.241,0.57 1.241,1.246l0,23.636c0,0.676 -0.568,1.245 -1.241,1.245l-2.661,0c-0.674,0 -1.241,-0.569 -1.241,-1.245l0,-23.636c0,-0.676 0.567,-1.246 1.241,-1.246l2.661,0Z" style="fill:#073b4c;fill-rule:nonzero;"/></g></g></svg>