<?xml version="1.0" encoding="UTF-8" standalone="no"?><!DOCTYPE svg PUBLIC "-//W3C//DTD SVG 1.1//EN" "http://www.w3.org/Graphics/SVG/1.1/DTD/svg11.dtd"><svg width="100%" height="100%" viewBox="0 0 240 96" version="1.1" xmlns="http://www.w3.org/2000/svg" xmlns:xlink="http://www.w3.org/1999/xlink" xml:space="preserve" xmlns:serif="http://www.serif.com/" style="fill-rule:evenodd;clip-rule:evenodd;stroke-linejoin:round;stroke-miterlimit:1.41421;"><g id="_1" serif:id="1"><rect id="_-Rectangle-" serif:id="(Rectangle)" x="0" y="0" width="240" height="96" style="fill:#fff;"/><g><text x="48px" y="80.187px" style="font-family:'Montserrat-Regular', 'Montserrat';font-size:12px;fill:#0353a4;">w<tspan x="58.476px " y="80.187px ">e</tspan>b | culture</text><g id="Logo"><path id="SvgjsG1305" d="M69.288,14.308c0.59,0 1.085,0.495 1.085,1.085l0,20.761c0,0.589 -0.495,1.085 -1.085,1.085l-2.355,0c-0.619,0 -1.084,-0.496 -1.084,-1.085l0,-14.006l-5.733,7.375c-0.217,0.248 -0.527,0.403 -0.868,0.403c-0.34,0 -0.681,-0.155 -0.867,-0.434l-10.164,-13.449c-0.248,-0.309 -0.279,-0.774 -0.093,-1.115c0.186,-0.372 0.558,-0.62 0.961,-0.62l2.727,0c0.34,0 0.65,0.155 0.867,0.434l6.569,8.676l6.415,-8.676c0.217,-0.279 0.527,-0.434 0.899,-0.434l2.726,0Zm-17.848,15.029c0.589,0 1.084,0.465 1.084,1.084l0,5.733c0,0.589 -0.495,1.085 -1.084,1.085l-2.355,0c-0.59,0 -1.085,-0.496 -1.085,-1.085l0,-5.733c0,-0.619 0.495,-1.084 1.085,-1.084l2.355,0Zm27.362,-15.029c0.588,0 1.085,0.495 1.085,1.085l0,20.576c0,0.588 -0.497,1.084 -1.085,1.084l-2.325,0c-0.588,0 -1.084,-0.496 -1.084,-1.084l0,-20.576c0,-0.59 0.496,-1.085 1.084,-1.085l2.325,0Zm13.108,4.989c-0.806,0.341 -1.519,0.837 -2.077,1.488c-1.177,1.301 -1.735,3.005 -1.735,5.143c0,2.138 0.558,3.843 1.735,5.175c1.209,1.364 2.944,2.014 5.331,2.014c1.27,0 2.323,-0.309 3.253,-0.929c0.961,-0.651 1.642,-1.457 2.107,-2.541c0.155,-0.403 0.558,-0.651 0.992,-0.651l2.448,0c0.341,0 0.682,0.155 0.868,0.434c0.216,0.31 0.278,0.65 0.154,0.991c-0.774,2.17 -2.045,3.874 -3.78,5.114c-1.859,1.332 -4.06,2.014 -6.569,2.014c-3.316,0 -6.043,-1.146 -8.119,-3.44c-1.921,-2.169 -2.913,-4.927 -2.913,-8.181c0,-3.254 0.992,-6.011 2.913,-8.18c2.076,-2.294 4.803,-3.44 8.119,-3.44c2.509,0 4.71,0.682 6.569,2.014c1.735,1.24 3.006,2.975 3.78,5.113c0.124,0.341 0.062,0.713 -0.154,0.992c-0.186,0.279 -0.527,0.434 -0.868,0.434l-2.448,0c-0.434,0 -0.837,-0.248 -0.992,-0.651c-0.465,-1.084 -1.146,-1.891 -2.107,-2.541c-0.93,-0.62 -1.983,-0.93 -3.253,-0.93c-1.333,0 -2.418,0.186 -3.254,0.558Zm34.365,-4.989c0.589,0 1.054,0.495 1.054,1.085l0,20.576c0,0.588 -0.465,1.084 -1.054,1.084l-2.355,0c-0.589,0 -1.054,-0.496 -1.054,-1.084l0,-8.088l-9.822,0l0,8.088c0,0.588 -0.497,1.084 -1.085,1.084l-2.325,0c-0.588,0 -1.084,-0.496 -1.084,-1.084l0,-20.576c0,-0.59 0.496,-1.085 1.084,-1.085l2.325,0c0.588,0 1.085,0.495 1.085,1.085l0,8.056l9.822,0l0,-8.056c0,-0.59 0.465,-1.085 1.054,-1.085l2.355,0Zm17.477,0.651l8.677,20.483c0.093,0.154 0.154,0.34 0.154,0.527c0,0.588 -0.464,1.084 -1.084,1.084l-2.572,0c-0.434,0 -0.837,-0.248 -0.992,-0.65l-2.262,-5.331l-8.769,0l-2.231,5.331c-0.155,0.402 -0.558,0.65 -0.992,0.65l-2.572,0c-0.372,0 -0.713,-0.186 -0.899,-0.496c-0.217,-0.279 -0.248,-0.681 -0.092,-0.992l8.738,-20.606c0.155,-0.403 0.558,-0.651 0.992,-0.651l2.913,0c0.433,0 0.836,0.248 0.991,0.651Zm-2.448,5.64l-2.572,6.166l5.144,0l-2.572,-6.166Zm30.151,-6.291c0.62,0 1.085,0.495 1.085,1.085l0,2.23c0,0.59 -0.465,1.085 -1.085,1.085l-11.713,0l0,4.741l10.35,0c0.62,0 1.084,0.496 1.084,1.085l0,2.262c0,0.589 -0.464,1.085 -1.084,1.085l-10.35,0l0,4.772l11.713,0c0.62,0 1.085,0.496 1.085,1.084l0,2.232c0,0.588 -0.465,1.084 -1.085,1.084l-15.122,0c-0.589,0 -1.085,-0.496 -1.085,-1.084l0,-20.576c0,-0.59 0.496,-1.085 1.085,-1.085l15.122,0Zm19.46,18.345c0.62,0 1.085,0.496 1.085,1.084l0,2.232c0,0.588 -0.465,1.084 -1.085,1.084l-13.541,0c-0.589,0 -1.085,-0.496 -1.085,-1.084l0,-20.576c0,-0.59 0.496,-1.085 1.085,-1.085l2.324,0c0.589,0 1.084,0.495 1.084,1.085l0,17.26l10.133,0Z" style="fill:#0353a4;fill-rule:nonzero;"/><path id="SvgjsG1306" d="M60.61,56.683l4.017,6.144c0.186,0.293 0.212,0.639 0.026,0.958c-0.159,0.293 -0.479,0.479 -0.798,0.479l-2.42,0c-0.32,0 -0.612,-0.159 -0.772,-0.425l-4.044,-6.412l-4.735,0l0,5.906c0,0.506 -0.425,0.931 -0.931,0.931l-2.022,0c-0.505,0 -0.931,-0.425 -0.931,-0.931l0,-8.753c0,-0.505 0.426,-0.93 0.931,-0.93l8.194,0c1.542,0 2.58,-0.426 3.112,-1.331c0.186,-0.292 0.266,-0.717 0.266,-1.223c0,-0.878 -0.266,-1.49 -0.824,-1.969c-0.586,-0.532 -1.41,-0.771 -2.448,-0.771l-8.3,0c-0.505,0 -0.931,-0.426 -0.931,-0.931l0,-1.916c0,-0.505 0.426,-0.931 0.931,-0.931l8.54,0c2.048,0 3.724,0.586 4.974,1.756c1.303,1.171 1.942,2.767 1.942,4.762c0,2.581 -1.144,4.442 -3.325,5.4c-0.133,0.054 -0.292,0.133 -0.452,0.187Zm17.025,-11.546l7.449,17.584c0.08,0.134 0.133,0.293 0.133,0.453c0,0.505 -0.399,0.931 -0.931,0.931l-2.208,0c-0.372,0 -0.718,-0.213 -0.851,-0.559l-1.942,-4.576l-7.529,0l-1.915,4.576c-0.133,0.346 -0.479,0.559 -0.852,0.559l-2.207,0c-0.32,0 -0.612,-0.16 -0.772,-0.426c-0.186,-0.24 -0.213,-0.585 -0.08,-0.852l7.502,-17.69c0.133,-0.346 0.479,-0.559 0.851,-0.559l2.501,0c0.372,0 0.718,0.213 0.851,0.559Zm-2.101,4.841l-2.208,5.295l4.416,0l-2.208,-5.295Zm27.454,-5.4c0.292,0 0.585,0.16 0.771,0.4c0.16,0.265 0.213,0.584 0.08,0.877l-7.157,17.665c-0.132,0.345 -0.478,0.585 -0.85,0.585l-2.288,0c-0.399,0 -0.719,-0.24 -0.878,-0.585l-7.156,-17.665c-0.107,-0.293 -0.08,-0.612 0.106,-0.877c0.16,-0.24 0.452,-0.4 0.771,-0.4l2.182,0c0.372,0 0.719,0.24 0.851,0.586l5.268,13.221l5.241,-13.221c0.159,-0.346 0.478,-0.586 0.877,-0.586l2.182,0Zm17.079,0c0.531,0 0.931,0.426 0.931,0.931l0,1.916c0,0.505 -0.4,0.931 -0.931,0.931l-10.056,0l0,4.07l8.885,0c0.532,0 0.931,0.426 0.931,0.931l0,1.942c0,0.505 -0.399,0.931 -0.931,0.931l-8.885,0l0,4.097l10.056,0c0.531,0 0.931,0.425 0.931,0.931l0,1.916c0,0.505 -0.4,0.931 -0.931,0.931l-12.983,0c-0.505,0 -0.931,-0.426 -0.931,-0.931l0,-17.665c0,-0.505 0.426,-0.931 0.931,-0.931l12.983,0Zm15.908,0.665c1.09,0.452 2.075,1.118 2.9,1.969c1.835,1.862 2.766,4.257 2.766,7.13c0,2.872 -0.931,5.267 -2.766,7.129c-0.825,0.851 -1.81,1.516 -2.9,1.968c-1.091,0.453 -2.208,0.666 -3.379,0.666l-7.448,0c-0.506,0 -0.932,-0.426 -0.932,-0.931l0,-17.665c0,-0.505 0.426,-0.931 0.932,-0.931l7.448,0c1.171,0 2.315,0.24 3.379,0.665Zm-7.901,3.086l0,12.025l4.443,0c1.569,0 2.819,-0.559 3.804,-1.729c0.984,-1.144 1.463,-2.554 1.463,-4.283c0,-1.73 -0.479,-3.14 -1.463,-4.283c-0.985,-1.171 -2.235,-1.73 -3.804,-1.73l-4.443,0Zm25.565,-3.751c2.873,0 5.294,0.984 7.156,2.927c1.809,1.889 2.74,4.256 2.74,7.049c0,2.794 -0.931,5.161 -2.74,7.05c-1.862,1.942 -4.283,2.926 -7.156,2.926c-2.873,0 -5.294,-0.984 -7.156,-2.926c-1.809,-1.889 -2.741,-4.256 -2.741,-7.05c0,-2.793 0.932,-5.16 2.741,-7.049c1.862,-1.943 4.283,-2.927 7.156,-2.927Zm0,16.148c1.863,0 3.299,-0.585 4.416,-1.756c1.091,-1.144 1.623,-2.606 1.623,-4.416c0,-1.809 -0.532,-3.245 -1.623,-4.416c-1.117,-1.17 -2.553,-1.756 -4.416,-1.756c-1.862,0 -3.299,0.586 -4.416,1.756c-1.091,1.171 -1.623,2.607 -1.623,4.416c0,1.81 0.532,3.272 1.623,4.416c1.117,1.171 2.554,1.756 4.416,1.756Zm29.263,-16.148c0.506,0 0.931,0.426 0.931,0.931l0,17.665c0,0.505 -0.425,0.931 -0.931,0.931l-2.341,0c-0.293,0 -0.559,-0.133 -0.745,-0.373l-9.231,-12.636l0,12.078c0,0.505 -0.426,0.931 -0.931,0.931l-1.996,0c-0.505,0 -0.931,-0.426 -0.931,-0.931l0,-17.665c0,-0.505 0.426,-0.931 0.931,-0.931l2.315,0c0.293,0 0.586,0.133 0.745,0.373l9.258,12.583l0,-12.025c0,-0.505 0.399,-0.931 0.904,-0.931l2.022,0Zm8.167,0c0.505,0 0.931,0.426 0.931,0.931l0,17.665c0,0.505 -0.426,0.931 -0.931,0.931l-1.995,0c-0.506,0 -0.931,-0.426 -0.931,-0.931l0,-17.665c0,-0.505 0.425,-0.931 0.931,-0.931l1.995,0Z" style="fill:#0353a4;fill-rule:nonzero;"/></g></g></g></svg>