<?xml version="1.0" encoding="UTF-8" standalone="no"?><!DOCTYPE svg PUBLIC "-//W3C//DTD SVG 1.1//EN" "http://www.w3.org/Graphics/SVG/1.1/DTD/svg11.dtd"><svg width="100%" height="100%" viewBox="0 0 240 96" version="1.1" xmlns="http://www.w3.org/2000/svg" xmlns:xlink="http://www.w3.org/1999/xlink" xml:space="preserve" xmlns:serif="http://www.serif.com/" style="fill-rule:evenodd;clip-rule:evenodd;stroke-linejoin:round;stroke-miterlimit:1.41421;"><g id="_1" serif:id="1"><rect id="_-Rectangle-" serif:id="(Rectangle)" x="0" y="0" width="240" height="96" style="fill:#fff;"/><clipPath id="_clip1"><rect x="24" y="12" width="192" height="72"/></clipPath><g clip-path="url(#_clip1)"><path id="SvgjsG1305" d="M52.356,16.8c0.785,0 1.445,0.66 1.445,1.445l0,27.654c0,0.785 -0.66,1.445 -1.445,1.445l-3.137,0c-0.825,0 -1.444,-0.66 -1.444,-1.445l0,-18.656l-7.636,9.823c-0.289,0.331 -0.702,0.537 -1.156,0.537c-0.454,0 -0.908,-0.206 -1.156,-0.578l-13.538,-17.914c-0.33,-0.412 -0.372,-1.031 -0.124,-1.485c0.248,-0.496 0.743,-0.826 1.28,-0.826l3.632,0c0.454,0 0.867,0.206 1.156,0.578l8.75,11.557l8.544,-11.557c0.289,-0.372 0.702,-0.578 1.197,-0.578l3.632,0Zm-23.774,20.019c0.784,0 1.444,0.619 1.444,1.444l0,7.636c0,0.785 -0.66,1.445 -1.444,1.445l-3.137,0c-0.785,0 -1.445,-0.66 -1.445,-1.445l0,-7.636c0,-0.825 0.66,-1.444 1.445,-1.444l3.137,0Zm36.446,-20.019c0.784,0 1.445,0.66 1.445,1.445l0,27.407c0,0.784 -0.661,1.444 -1.445,1.444l-3.096,0c-0.784,0 -1.444,-0.66 -1.444,-1.444l0,-27.407c0,-0.785 0.66,-1.445 1.444,-1.445l3.096,0Zm17.46,6.645c-1.074,0.454 -2.023,1.115 -2.766,1.982c-1.568,1.733 -2.311,4.003 -2.311,6.851c0,2.848 0.743,5.119 2.311,6.893c1.61,1.817 3.921,2.683 7.1,2.683c1.692,0 3.095,-0.412 4.334,-1.238c1.279,-0.867 2.187,-1.94 2.806,-3.385c0.207,-0.536 0.743,-0.866 1.321,-0.866l3.261,0c0.454,0 0.908,0.206 1.156,0.578c0.288,0.412 0.371,0.866 0.206,1.32c-1.032,2.89 -2.724,5.16 -5.036,6.811c-2.476,1.775 -5.407,2.683 -8.75,2.683c-4.417,0 -8.049,-1.527 -10.814,-4.582c-2.559,-2.889 -3.88,-6.563 -3.88,-10.897c0,-4.334 1.321,-8.007 3.88,-10.896c2.765,-3.055 6.397,-4.582 10.814,-4.582c3.343,0 6.274,0.908 8.75,2.683c2.312,1.651 4.004,3.962 5.036,6.81c0.165,0.454 0.082,0.95 -0.206,1.321c-0.248,0.372 -0.702,0.578 -1.156,0.578l-3.261,0c-0.578,0 -1.114,-0.33 -1.321,-0.867c-0.619,-1.444 -1.527,-2.518 -2.806,-3.384c-1.239,-0.826 -2.642,-1.239 -4.334,-1.239c-1.775,0 -3.22,0.248 -4.334,0.743Zm45.774,-6.645c0.785,0 1.404,0.66 1.404,1.445l0,27.407c0,0.784 -0.619,1.444 -1.404,1.444l-3.137,0c-0.784,0 -1.403,-0.66 -1.403,-1.444l0,-10.773l-13.084,0l0,10.773c0,0.784 -0.661,1.444 -1.445,1.444l-3.096,0c-0.784,0 -1.444,-0.66 -1.444,-1.444l0,-27.407c0,-0.785 0.66,-1.445 1.444,-1.445l3.096,0c0.784,0 1.445,0.66 1.445,1.445l0,10.731l13.084,0l0,-10.731c0,-0.785 0.619,-1.445 1.403,-1.445l3.137,0Zm23.28,0.867l11.557,27.283c0.124,0.206 0.206,0.454 0.206,0.702c0,0.784 -0.619,1.444 -1.444,1.444l-3.426,0c-0.578,0 -1.115,-0.33 -1.321,-0.866l-3.013,-7.1l-11.681,0l-2.972,7.1c-0.206,0.536 -0.743,0.866 -1.321,0.866l-3.426,0c-0.495,0 -0.949,-0.247 -1.197,-0.66c-0.289,-0.372 -0.33,-0.908 -0.123,-1.321l11.639,-27.448c0.207,-0.537 0.743,-0.867 1.321,-0.867l3.88,0c0.578,0 1.114,0.33 1.321,0.867Zm-3.261,7.512l-3.426,8.214l6.852,0l-3.426,-8.214Zm40.161,-8.379c0.826,0 1.445,0.66 1.445,1.445l0,2.971c0,0.785 -0.619,1.445 -1.445,1.445l-15.602,0l0,6.315l13.786,0c0.826,0 1.445,0.661 1.445,1.445l0,3.013c0,0.784 -0.619,1.445 -1.445,1.445l-13.786,0l0,6.356l15.602,0c0.826,0 1.445,0.661 1.445,1.445l0,2.972c0,0.784 -0.619,1.444 -1.445,1.444l-20.142,0c-0.785,0 -1.445,-0.66 -1.445,-1.444l0,-27.407c0,-0.785 0.66,-1.445 1.445,-1.445l20.142,0Zm25.921,24.435c0.826,0 1.445,0.661 1.445,1.445l0,2.972c0,0.784 -0.619,1.444 -1.445,1.444l-18.037,0c-0.784,0 -1.445,-0.66 -1.445,-1.444l0,-27.407c0,-0.785 0.661,-1.445 1.445,-1.445l3.096,0c0.784,0 1.444,0.66 1.444,1.445l0,22.99l13.497,0Z" style="fill:#0353a4;fill-rule:nonzero;"/><path id="SvgjsG1306" d="M40.796,73.243l5.351,8.185c0.248,0.39 0.283,0.851 0.035,1.276c-0.212,0.39 -0.638,0.638 -1.063,0.638l-3.224,0c-0.426,0 -0.815,-0.213 -1.028,-0.567l-5.386,-8.54l-6.308,0l0,7.866c0,0.674 -0.566,1.241 -1.24,1.241l-2.693,0c-0.673,0 -1.24,-0.567 -1.24,-1.241l0,-11.658c0,-0.673 0.567,-1.24 1.24,-1.24l10.914,0c2.055,0 3.437,-0.567 4.146,-1.772c0.248,-0.389 0.354,-0.956 0.354,-1.629c0,-1.17 -0.354,-1.985 -1.098,-2.623c-0.78,-0.708 -1.878,-1.027 -3.26,-1.027l-11.056,0c-0.673,0 -1.24,-0.567 -1.24,-1.24l0,-2.552c0,-0.673 0.567,-1.24 1.24,-1.24l11.375,0c2.728,0 4.961,0.78 6.626,2.339c1.736,1.559 2.587,3.685 2.587,6.343c0,3.437 -1.524,5.917 -4.43,7.193c-0.177,0.071 -0.389,0.177 -0.602,0.248Zm22.678,-15.379l9.922,23.422c0.106,0.178 0.177,0.39 0.177,0.603c0,0.673 -0.531,1.24 -1.24,1.24l-2.941,0c-0.496,0 -0.957,-0.283 -1.134,-0.744l-2.587,-6.095l-10.028,0l-2.551,6.095c-0.177,0.461 -0.638,0.744 -1.134,0.744l-2.941,0c-0.425,0 -0.815,-0.213 -1.028,-0.567c-0.248,-0.319 -0.283,-0.779 -0.106,-1.134l9.993,-23.564c0.177,-0.461 0.637,-0.744 1.133,-0.744l3.331,0c0.496,0 0.957,0.283 1.134,0.744Zm-2.799,6.449l-2.941,7.052l5.882,0l-2.941,-7.052Zm36.569,-7.193c0.389,0 0.779,0.213 1.027,0.532c0.213,0.354 0.284,0.779 0.106,1.169l-9.532,23.529c-0.177,0.46 -0.637,0.779 -1.133,0.779l-3.048,0c-0.531,0 -0.957,-0.319 -1.169,-0.779l-9.532,-23.529c-0.142,-0.39 -0.106,-0.815 0.142,-1.169c0.212,-0.319 0.602,-0.532 1.027,-0.532l2.906,0c0.496,0 0.957,0.319 1.134,0.78l7.016,17.611l6.981,-17.611c0.212,-0.461 0.637,-0.78 1.169,-0.78l2.906,0Zm22.749,0c0.708,0 1.24,0.567 1.24,1.24l0,2.552c0,0.673 -0.532,1.24 -1.24,1.24l-13.395,0l0,5.421l11.835,0c0.709,0 1.241,0.567 1.241,1.24l0,2.587c0,0.673 -0.532,1.24 -1.241,1.24l-11.835,0l0,5.457l13.395,0c0.708,0 1.24,0.567 1.24,1.241l0,2.551c0,0.673 -0.532,1.24 -1.24,1.24l-17.293,0c-0.673,0 -1.24,-0.567 -1.24,-1.24l0,-23.529c0,-0.673 0.567,-1.24 1.24,-1.24l17.293,0Zm21.19,0.886c1.452,0.602 2.763,1.488 3.862,2.622c2.445,2.48 3.685,5.67 3.685,9.497c0,3.826 -1.24,7.016 -3.685,9.496c-1.099,1.134 -2.41,2.02 -3.862,2.622c-1.453,0.603 -2.942,0.886 -4.501,0.886l-9.921,0c-0.674,0 -1.241,-0.567 -1.241,-1.24l0,-23.529c0,-0.673 0.567,-1.24 1.241,-1.24l9.921,0c1.559,0 3.083,0.319 4.501,0.886Zm-10.525,4.11l0,16.017l5.918,0c2.091,0 3.756,-0.744 5.067,-2.303c1.311,-1.524 1.949,-3.402 1.949,-5.705c0,-2.304 -0.638,-4.182 -1.949,-5.705c-1.311,-1.56 -2.976,-2.304 -5.067,-2.304l-5.918,0Zm34.053,-4.996c3.827,0 7.052,1.311 9.532,3.898c2.41,2.516 3.65,5.669 3.65,9.39c0,3.721 -1.24,6.874 -3.65,9.39c-2.48,2.587 -5.705,3.898 -9.532,3.898c-3.827,0 -7.051,-1.311 -9.532,-3.898c-2.409,-2.516 -3.65,-5.669 -3.65,-9.39c0,-3.721 1.241,-6.874 3.65,-9.39c2.481,-2.587 5.705,-3.898 9.532,-3.898Zm0,21.509c2.481,0 4.394,-0.78 5.882,-2.339c1.453,-1.524 2.162,-3.472 2.162,-5.882c0,-2.41 -0.709,-4.323 -2.162,-5.882c-1.488,-1.559 -3.401,-2.339 -5.882,-2.339c-2.48,0 -4.394,0.78 -5.882,2.339c-1.453,1.559 -2.162,3.472 -2.162,5.882c0,2.41 0.709,4.358 2.162,5.882c1.488,1.559 3.402,2.339 5.882,2.339Zm38.978,-21.509c0.674,0 1.241,0.567 1.241,1.24l0,23.529c0,0.673 -0.567,1.24 -1.241,1.24l-3.118,0c-0.39,0 -0.744,-0.177 -0.992,-0.496l-12.296,-16.831l0,16.087c0,0.673 -0.567,1.24 -1.24,1.24l-2.658,0c-0.673,0 -1.24,-0.567 -1.24,-1.24l0,-23.529c0,-0.673 0.567,-1.24 1.24,-1.24l3.083,0c0.39,0 0.78,0.177 0.992,0.496l12.332,16.761l0,-16.017c0,-0.673 0.531,-1.24 1.204,-1.24l2.693,0Zm10.879,0c0.673,0 1.24,0.567 1.24,1.24l0,23.529c0,0.673 -0.567,1.24 -1.24,1.24l-2.658,0c-0.673,0 -1.24,-0.567 -1.24,-1.24l0,-23.529c0,-0.673 0.567,-1.24 1.24,-1.24l2.658,0Z" style="fill:#0353a4;fill-rule:nonzero;"/></g></g></svg>