<?xml version="1.0" standalone="no"?>
<!DOCTYPE svg PUBLIC "-//W3C//DTD SVG 20010904//EN"
 "http://www.w3.org/TR/2001/REC-SVG-20010904/DTD/svg10.dtd">
<svg version="1.0" xmlns="http://www.w3.org/2000/svg"
 width="1024.000000pt" height="1024.000000pt" viewBox="0 0 1024.000000 1024.000000"
 preserveAspectRatio="xMidYMid meet">
<metadata>
Created by potrace 1.11, written by Peter Selinger 2001-2013
</metadata>
<g transform="translate(0.000000,1024.000000) scale(0.100000,-0.100000)"
fill="#000000" stroke="none">
<path d="M8388 8384 c-2 -1 -37 -5 -78 -8 -109 -8 -152 -16 -361 -61 -46 -10
-265 -71 -348 -97 -53 -16 -123 -38 -156 -48 -33 -10 -125 -38 -205 -63 -147
-46 -257 -79 -275 -82 -5 -2 -41 -12 -80 -23 -74 -21 -154 -41 -195 -48 -14
-3 -50 -11 -80 -19 -31 -8 -73 -17 -94 -21 -21 -3 -48 -8 -60 -10 -31 -6 -76
-13 -121 -19 -95 -12 -145 -27 -170 -51 -23 -22 -26 -30 -20 -62 15 -84 109
-208 234 -309 l23 -19 -101 -144 c-55 -80 -106 -153 -113 -163 -164 -236 -835
-1115 -1158 -1517 -15 -19 -108 -136 -205 -260 -97 -124 -188 -240 -203 -259
-15 -19 -78 -100 -140 -180 -62 -80 -118 -153 -125 -161 -7 -8 -37 -49 -67
-90 -30 -41 -57 -77 -60 -80 -11 -9 -325 -433 -427 -575 -197 -277 -407 -589
-538 -800 -37 -60 -72 -114 -77 -120 -11 -11 -3 27 19 94 8 24 16 51 18 60 7
37 214 770 296 1051 49 168 97 330 106 360 25 87 81 269 215 705 63 207 82
266 166 525 185 568 246 769 267 880 24 130 29 188 29 315 -1 121 -5 165 -22
229 -43 156 -116 278 -248 411 -98 100 -160 138 -219 138 -86 0 -116 -33 -415
-458 -173 -246 -624 -919 -770 -1150 -63 -99 -129 -201 -147 -227 -18 -26 -33
-50 -33 -52 0 -3 -17 -31 -39 -63 -51 -78 -393 -632 -498 -808 -46 -77 -87
-147 -92 -155 -5 -8 -83 -141 -174 -295 -145 -247 -193 -332 -295 -515 -14
-25 -53 -94 -87 -155 -229 -406 -460 -880 -539 -1102 -26 -71 -65 -201 -72
-237 -22 -110 -28 -169 -28 -276 -1 -140 6 -193 33 -271 39 -114 114 -217 170
-237 54 -19 65 -3 191 273 34 76 140 298 150 315 5 8 43 83 86 165 143 279
342 650 364 680 4 6 27 46 50 90 138 257 894 1521 930 1555 3 3 29 46 59 95
30 50 84 135 119 190 82 126 171 263 247 383 90 139 344 524 350 530 3 3 1 -8
-5 -24 -90 -271 -228 -725 -334 -1099 -60 -212 -192 -703 -202 -750 -2 -11 -6
-29 -9 -40 -3 -11 -12 -47 -19 -80 -8 -33 -15 -60 -16 -60 -1 0 -3 -9 -5 -20
-2 -11 -18 -78 -36 -150 -17 -71 -33 -141 -35 -155 -3 -13 -14 -63 -25 -110
-19 -80 -65 -295 -75 -350 -2 -14 -13 -72 -24 -130 -10 -58 -22 -125 -25 -150
-3 -25 -8 -61 -10 -80 -3 -19 -7 -98 -10 -175 -11 -377 101 -637 358 -833 72
-55 98 -62 135 -37 23 17 39 43 192 315 52 91 118 206 148 255 30 50 61 101
69 115 131 231 659 1018 957 1425 121 166 430 580 435 585 4 3 24 30 46 60 22
30 42 57 45 60 3 3 35 43 70 90 36 47 67 87 70 90 3 3 18 23 35 45 30 42 535
673 721 902 59 73 110 131 112 128 3 -2 0 -10 -6 -17 -12 -15 -414 -816 -490
-978 -27 -58 -74 -157 -105 -220 -50 -106 -115 -246 -197 -425 -144 -317 -334
-770 -410 -980 -18 -49 -38 -103 -45 -120 -7 -16 -18 -46 -23 -65 -6 -19 -24
-80 -40 -135 -126 -417 -139 -762 -39 -975 49 -103 167 -211 211 -194 22 8 50
61 81 149 14 42 31 88 37 103 18 47 25 66 43 117 10 28 23 64 30 80 7 17 23
57 36 90 93 245 415 1005 534 1260 20 44 50 107 65 140 15 33 52 112 83 175
30 63 56 120 57 125 1 6 10 21 19 35 9 14 36 67 61 117 24 51 49 93 55 93 5 0
15 -8 22 -19 6 -10 62 -76 125 -148 62 -71 136 -156 165 -188 46 -54 241 -290
333 -405 19 -24 47 -58 61 -75 68 -81 431 -554 642 -837 140 -187 245 -319
258 -323 72 -23 170 169 171 337 1 175 -33 312 -122 494 -131 270 -412 688
-720 1074 -41 52 -87 111 -102 130 -14 19 -35 46 -47 59 -11 13 -21 27 -21 30
0 3 44 17 98 30 53 13 115 29 137 36 22 7 87 27 145 45 99 30 339 116 405 145
17 7 75 32 130 56 395 170 818 422 1115 663 342 277 597 578 743 876 94 192
146 362 174 570 15 108 8 374 -12 470 -2 14 -10 50 -16 80 -37 180 -135 402
-244 555 -106 148 -288 286 -440 331 -81 24 -169 43 -227 49 -72 8 -275 14
-280 9z m424 -629 c174 -24 283 -122 330 -297 73 -277 -57 -650 -359 -1028
-65 -82 -269 -293 -363 -375 -298 -263 -723 -527 -1130 -702 -58 -24 -118 -51
-135 -58 -100 -45 -444 -161 -610 -207 -22 -6 -60 -16 -85 -23 -40 -12 -73
-20 -120 -30 -8 -2 -34 -8 -57 -13 -41 -10 -42 -9 -31 12 17 33 345 613 388
686 246 421 444 784 509 935 12 28 26 59 31 70 77 164 160 477 160 604 l0 58
43 15 c23 9 213 72 422 141 465 154 635 199 802 213 43 4 79 7 80 8 4 3 73 -2
125 -9z"/>
</g>
</svg>
