<?xml version="1.0" encoding="UTF-8" standalone="no"?><!DOCTYPE svg PUBLIC "-//W3C//DTD SVG 1.1//EN" "http://www.w3.org/Graphics/SVG/1.1/DTD/svg11.dtd"><svg width="100%" height="100%" viewBox="0 0 258 173" version="1.1" xmlns="http://www.w3.org/2000/svg" xmlns:xlink="http://www.w3.org/1999/xlink" xml:space="preserve" xmlns:serif="http://www.serif.com/" style="fill-rule:evenodd;clip-rule:evenodd;stroke-linejoin:round;stroke-miterlimit:1.41421;"><g id="Front"><rect x="2.491" y="2.491" width="252.283" height="167.244" style="fill:#0d3b4b;"/><text x="50.68px" y="129.515px" style="font-family:'Montserrat-Regular', 'Montserrat';font-size:12px;fill:#fcce66;">w<tspan x="61.156px " y="129.515px ">e</tspan>b | culture</text><g id="Logo"><path id="SvgjsG1305" d="M73.728,58.926c0.638,0 1.175,0.536 1.175,1.174l0,22.478c0,0.638 -0.537,1.174 -1.175,1.174l-2.55,0c-0.67,0 -1.174,-0.536 -1.174,-1.174l0,-15.164l-6.206,7.984c-0.235,0.269 -0.571,0.437 -0.94,0.437c-0.369,0 -0.738,-0.168 -0.939,-0.47l-11.004,-14.561c-0.269,-0.335 -0.303,-0.838 -0.101,-1.207c0.201,-0.403 0.604,-0.671 1.04,-0.671l2.952,0c0.369,0 0.705,0.167 0.94,0.469l7.112,9.394l6.945,-9.394c0.235,-0.302 0.571,-0.469 0.973,-0.469l2.952,0Zm-19.324,16.271c0.637,0 1.174,0.504 1.174,1.174l0,6.207c0,0.638 -0.537,1.174 -1.174,1.174l-2.55,0c-0.638,0 -1.174,-0.536 -1.174,-1.174l0,-6.207c0,-0.67 0.536,-1.174 1.174,-1.174l2.55,0Zm29.624,-16.271c0.637,0 1.175,0.536 1.175,1.174l0,22.277c0,0.637 -0.538,1.174 -1.175,1.174l-2.516,0c-0.638,0 -1.174,-0.537 -1.174,-1.174l0,-22.277c0,-0.638 0.536,-1.174 1.174,-1.174l2.516,0Zm14.192,5.401c-0.873,0.369 -1.644,0.906 -2.248,1.611c-1.275,1.408 -1.879,3.253 -1.879,5.568c0,2.315 0.604,4.161 1.879,5.603c1.308,1.477 3.187,2.181 5.771,2.181c1.375,0 2.515,-0.335 3.522,-1.006c1.04,-0.705 1.778,-1.577 2.281,-2.752c0.169,-0.435 0.604,-0.704 1.074,-0.704l2.651,0c0.369,0 0.738,0.168 0.939,0.47c0.234,0.335 0.302,0.704 0.168,1.073c-0.839,2.349 -2.214,4.194 -4.094,5.536c-2.012,1.443 -4.395,2.181 -7.112,2.181c-3.59,0 -6.542,-1.241 -8.79,-3.724c-2.08,-2.349 -3.153,-5.335 -3.153,-8.858c0,-3.522 1.073,-6.508 3.153,-8.856c2.248,-2.483 5.2,-3.724 8.79,-3.724c2.717,0 5.1,0.738 7.112,2.18c1.88,1.342 3.255,3.221 4.094,5.536c0.134,0.369 0.066,0.772 -0.168,1.073c-0.201,0.303 -0.57,0.47 -0.939,0.47l-2.651,0c-0.47,0 -0.905,-0.268 -1.074,-0.705c-0.503,-1.173 -1.241,-2.046 -2.281,-2.75c-1.007,-0.672 -2.147,-1.007 -3.522,-1.007c-1.443,0 -2.618,0.201 -3.523,0.604Zm37.206,-5.401c0.638,0 1.141,0.536 1.141,1.174l0,22.277c0,0.637 -0.503,1.174 -1.141,1.174l-2.55,0c-0.637,0 -1.14,-0.537 -1.14,-1.174l0,-8.756l-10.635,0l0,8.756c0,0.637 -0.537,1.174 -1.175,1.174l-2.516,0c-0.637,0 -1.174,-0.537 -1.174,-1.174l0,-22.277c0,-0.638 0.537,-1.174 1.174,-1.174l2.516,0c0.638,0 1.175,0.536 1.175,1.174l0,8.722l10.635,0l0,-8.722c0,-0.638 0.503,-1.174 1.14,-1.174l2.55,0Zm18.922,0.704l9.394,22.176c0.101,0.168 0.168,0.369 0.168,0.571c0,0.637 -0.503,1.174 -1.174,1.174l-2.785,0c-0.47,0 -0.906,-0.268 -1.074,-0.704l-2.449,-5.771l-9.494,0l-2.416,5.771c-0.167,0.436 -0.604,0.704 -1.074,0.704l-2.784,0c-0.403,0 -0.772,-0.201 -0.973,-0.537c-0.235,-0.302 -0.268,-0.738 -0.1,-1.073l9.46,-22.311c0.168,-0.436 0.604,-0.704 1.074,-0.704l3.154,0c0.47,0 0.905,0.268 1.073,0.704Zm-2.65,6.106l-2.785,6.677l5.57,0l-2.785,-6.677Zm32.644,-6.81c0.671,0 1.174,0.536 1.174,1.174l0,2.415c0,0.638 -0.503,1.174 -1.174,1.174l-12.682,0l0,5.133l11.205,0c0.672,0 1.175,0.538 1.175,1.175l0,2.449c0,0.637 -0.503,1.175 -1.175,1.175l-11.205,0l0,5.166l12.682,0c0.671,0 1.174,0.537 1.174,1.174l0,2.416c0,0.637 -0.503,1.174 -1.174,1.174l-16.372,0c-0.638,0 -1.175,-0.537 -1.175,-1.174l0,-22.277c0,-0.638 0.537,-1.174 1.175,-1.174l16.372,0Zm21.069,19.861c0.671,0 1.174,0.537 1.174,1.174l0,2.416c0,0.637 -0.503,1.174 -1.174,1.174l-14.661,0c-0.637,0 -1.175,-0.537 -1.175,-1.174l0,-22.277c0,-0.638 0.538,-1.174 1.175,-1.174l2.516,0c0.638,0 1.174,0.536 1.174,1.174l0,18.687l10.971,0Z" style="fill:#fcce66;fill-rule:nonzero;"/><path id="SvgjsG1306" d="M64.332,104.804l4.349,6.653c0.202,0.317 0.23,0.691 0.029,1.037c-0.173,0.317 -0.519,0.518 -0.864,0.518l-2.621,0c-0.346,0 -0.662,-0.173 -0.835,-0.461l-4.378,-6.941l-5.128,0l0,6.394c0,0.547 -0.46,1.008 -1.007,1.008l-2.189,0c-0.547,0 -1.008,-0.461 -1.008,-1.008l0,-9.476c0,-0.547 0.461,-1.008 1.008,-1.008l8.871,0c1.67,0 2.793,-0.461 3.37,-1.441c0.201,-0.316 0.287,-0.777 0.287,-1.324c0,-0.951 -0.287,-1.613 -0.892,-2.132c-0.634,-0.575 -1.527,-0.834 -2.65,-0.834l-8.986,0c-0.547,0 -1.008,-0.461 -1.008,-1.008l0,-2.075c0,-0.547 0.461,-1.008 1.008,-1.008l9.245,0c2.218,0 4.033,0.634 5.386,1.902c1.411,1.267 2.103,2.995 2.103,5.155c0,2.794 -1.239,4.81 -3.601,5.847c-0.144,0.058 -0.316,0.144 -0.489,0.202Zm18.433,-12.501l8.065,19.038c0.086,0.145 0.144,0.317 0.144,0.49c0,0.547 -0.432,1.008 -1.008,1.008l-2.391,0c-0.403,0 -0.778,-0.23 -0.921,-0.605l-2.103,-4.954l-8.151,0l-2.074,4.954c-0.144,0.375 -0.518,0.605 -0.921,0.605l-2.391,0c-0.345,0 -0.662,-0.173 -0.836,-0.461c-0.201,-0.259 -0.23,-0.633 -0.086,-0.921l8.123,-19.154c0.144,-0.375 0.518,-0.605 0.921,-0.605l2.707,0c0.403,0 0.778,0.23 0.922,0.605Zm-2.275,5.242l-2.391,5.732l4.781,0l-2.39,-5.732Zm29.724,-5.847c0.316,0 0.633,0.174 0.835,0.433c0.173,0.288 0.231,0.633 0.086,0.95l-7.748,19.125c-0.144,0.374 -0.518,0.633 -0.921,0.633l-2.477,0c-0.432,0 -0.778,-0.259 -0.951,-0.633l-7.747,-19.125c-0.116,-0.317 -0.087,-0.662 0.115,-0.95c0.172,-0.259 0.489,-0.433 0.835,-0.433l2.362,0c0.403,0 0.778,0.26 0.922,0.634l5.702,14.315l5.675,-14.315c0.172,-0.374 0.517,-0.634 0.95,-0.634l2.362,0Zm18.491,0c0.575,0 1.008,0.461 1.008,1.008l0,2.075c0,0.547 -0.433,1.008 -1.008,1.008l-10.888,0l0,4.406l9.62,0c0.576,0 1.008,0.461 1.008,1.008l0,2.103c0,0.547 -0.432,1.007 -1.008,1.007l-9.62,0l0,4.436l10.888,0c0.575,0 1.008,0.461 1.008,1.009l0,2.073c0,0.547 -0.433,1.008 -1.008,1.008l-14.056,0c-0.547,0 -1.008,-0.461 -1.008,-1.008l0,-19.125c0,-0.547 0.461,-1.008 1.008,-1.008l14.056,0Zm17.223,0.721c1.181,0.489 2.246,1.209 3.14,2.131c1.987,2.016 2.995,4.609 2.995,7.719c0,3.11 -1.008,5.703 -2.995,7.719c-0.894,0.921 -1.959,1.642 -3.14,2.131c-1.181,0.49 -2.391,0.72 -3.658,0.72l-8.064,0c-0.548,0 -1.009,-0.461 -1.009,-1.008l0,-19.125c0,-0.547 0.461,-1.008 1.009,-1.008l8.064,0c1.267,0 2.506,0.26 3.658,0.721Zm-8.554,3.34l0,13.019l4.81,0c1.699,0 3.053,-0.604 4.118,-1.872c1.066,-1.238 1.585,-2.765 1.585,-4.637c0,-1.873 -0.519,-3.399 -1.585,-4.637c-1.065,-1.268 -2.419,-1.873 -4.118,-1.873l-4.81,0Zm27.678,-4.061c3.111,0 5.733,1.066 7.748,3.169c1.959,2.045 2.967,4.608 2.967,7.632c0,3.025 -1.008,5.588 -2.967,7.633c-2.015,2.102 -4.637,3.168 -7.748,3.168c-3.11,0 -5.731,-1.066 -7.747,-3.168c-1.958,-2.045 -2.967,-4.608 -2.967,-7.633c0,-3.024 1.009,-5.587 2.967,-7.632c2.016,-2.103 4.637,-3.169 7.747,-3.169Zm0,17.483c2.017,0 3.572,-0.634 4.782,-1.901c1.181,-1.239 1.757,-2.822 1.757,-4.781c0,-1.959 -0.576,-3.514 -1.757,-4.781c-1.21,-1.267 -2.765,-1.901 -4.782,-1.901c-2.015,0 -3.571,0.634 -4.781,1.901c-1.181,1.267 -1.757,2.822 -1.757,4.781c0,1.959 0.576,3.542 1.757,4.781c1.21,1.267 2.766,1.901 4.781,1.901Zm31.683,-17.483c0.547,0 1.008,0.461 1.008,1.008l0,19.125c0,0.547 -0.461,1.008 -1.008,1.008l-2.535,0c-0.317,0 -0.604,-0.144 -0.806,-0.403l-9.995,-13.681l0,13.076c0,0.547 -0.46,1.008 -1.007,1.008l-2.161,0c-0.547,0 -1.008,-0.461 -1.008,-1.008l0,-19.125c0,-0.547 0.461,-1.008 1.008,-1.008l2.506,0c0.317,0 0.634,0.144 0.806,0.404l10.024,13.623l0,-13.019c0,-0.547 0.432,-1.008 0.979,-1.008l2.189,0Zm8.842,0c0.547,0 1.008,0.461 1.008,1.008l0,19.125c0,0.547 -0.461,1.008 -1.008,1.008l-2.16,0c-0.547,0 -1.008,-0.461 -1.008,-1.008l0,-19.125c0,-0.547 0.461,-1.008 1.008,-1.008l2.16,0Z" style="fill:#fcce66;fill-rule:nonzero;"/></g></g></svg>